<svg t="1665889916196" class="icon" viewBox="0 0 1024 1024" version="1.1" xmlns="http://www.w3.org/2000/svg" p-id="4324" width="200" height="200"><path d="M229.437991 794.56773a399.6 399.6 0 1 0 565.109876-565.129602 399.6 399.6 0 1 0-565.109876 565.129602Z" fill="#EC5353" p-id="4325"></path><path d="M512 112.4c-17 0-33.6 1-50 3.2 197.2 24.6 349.6 192.8 349.6 396.4S659.2 884 462 908.4c16.4 2 33 3.2 50 3.2 220.6 0 399.6-178.8 399.6-399.6S732.8 112.4 512 112.4z" fill="#D14545" p-id="4326"></path><path d="M626 192.8c-2.6-3.4-3.6-8-2-12.2 2.4-6.4 9.6-9.8 16-7.2 27.4 10.4 53.4 24 77.6 40.6 5.6 4 7 11.6 3.2 17.4-4 5.6-11.6 7-17.4 3.2-22.4-15.4-46.6-28.2-72.2-37.8-2-1-3.8-2.4-5.2-4zM570.2 176.8c-2.2-2.8-3.2-6.4-2.6-10.2 1.4-6.8 8-11.2 14.6-9.8 8 1.6 16.2 3.4 24.2 5.6 6.6 1.8 10.6 8.6 8.8 15.4-1.8 6.6-8.6 10.6-15.4 8.8-7.4-2-15-3.8-22.6-5.2-2.6-0.8-5.2-2.4-7-4.6zM247.098 600.188l70.71-70.71 35.354 35.354-70.71 70.71z" fill="#ECEFF1" p-id="4327"></path><path d="M706.272235 423.624296a25 25 0 1 0 35.354722-35.355956 25 25 0 1 0-35.354722 35.355956Z" fill="#79909B" p-id="4328"></path><path d="M924 501.4c0-1 0-2-0.2-2.8-3.2-101-43.4-201-120.2-278-76.8-76.8-176.8-117-277.8-120.2-1-0.2-2-0.4-3-0.2-0.4 0-0.8 0-1.2 0.2-108.6-2.4-218 37.6-300.8 120.4-82.8 82.6-123 192-120.6 300.6 0 0.4-0.2 0.8-0.2 1.2 0 1 0 2 0.2 2.8 3.2 101 43.4 201 120.2 278 77 77 176.8 117 277.8 120.2 0.8 0.2 1.8 0.2 2.6 0.2h0.4c0.4 0 0.8-0.2 1.2-0.2 3.2 0 6.2 0.2 9.4 0.2 105.6 0 211-40.2 291.4-120.6 82.8-82.8 122.8-192.2 120.4-300.8 0.2-0.2 0.4-0.6 0.4-1z m-129.6 275.4l-158.6-158.6c71.8-67.6 164.4-104.4 263.2-104.6-0.4 94.6-35.2 189.2-104.6 263.2zM125.8 535.6c105-0.4 203.6-39.8 280-112l88.4 88.4-264.6 264.8c-64-68.2-98.6-154-103.8-241.2z m103.8-288.4l158.6 158.6c-71.8 67.6-164.4 104.4-263 104.6 0.2-94.6 35.2-189.2 104.4-263.2z m306-121.4c87.2 5.2 173 39.8 241.2 103.8L512 494.4 423.6 406c72-76.6 111.4-175.2 112-280.2z m-129.8 262.4l-158.6-158.6c73.8-69.4 168.6-104.2 263.2-104.6-0.2 98.8-37 191.4-104.6 263.2z m106.2 141.4l88.4 88.4c-72 76.4-111.4 175-112 280-87.2-5.2-173-39.8-241.2-103.8L512 529.6z m106.2 106.2l158.6 158.6c-73.8 69.4-168.6 104.2-263.2 104.6 0.2-98.8 37-191.4 104.6-263.2z m0-35.4L529.6 512l264.8-264.8c64 68.2 98.6 154 103.8 241.2-105 0.6-203.6 40-280 112z" fill="#17171D" p-id="4329"></path><path d="M361.8 556.2l-35.4-35.4c-2.4-2.4-5.6-3.6-8.8-3.6-3.4 0-6.4 1.4-8.8 3.6l-70.6 70.6c-2.4 2.4-3.6 5.6-3.6 8.8 0 3.4 1.4 6.4 3.6 8.8l35.4 35.4c2.4 2.4 5.6 3.6 8.8 3.6 3.2 0 6.4-1.2 8.8-3.6l70.6-70.6a12.2 12.2 0 0 0 0-17.6zM282.4 618l-17.6-17.6 53-53 17.6 17.6-53 53zM750.4 379.6c-14.6-14.6-38.4-14.6-53 0-14.6 14.6-14.6 38.4 0 53 7.4 7.4 16.8 11 26.4 11 9.6 0 19.2-3.6 26.4-11 14.8-14.6 14.8-38.4 0.2-53z m-17.6 35.2c-2.4 2.4-5.4 3.6-8.8 3.6-3.4 0-6.4-1.2-8.8-3.6-4.8-4.8-4.8-12.8 0-17.6 2.4-2.4 5.4-3.6 8.8-3.6 3.4 0 6.4 1.2 8.8 3.6 2.4 2.4 3.6 5.4 3.6 8.8s-1.2 6.4-3.6 8.8z" fill="#17171D" p-id="4330"></path></svg>