<svg t="1665891555843" class="icon" viewBox="0 0 1910 1024" version="1.1" xmlns="http://www.w3.org/2000/svg" p-id="7204" width="200" height="200"><path d="M1546.306108 269.786959S1595.127134 79.528552 1687.74349 99.272349s77.898253 141.257892 77.898253 141.257893l42.897886 111.642197-17.948906 44.872265-13.102702 21.897666s25.128469 98.180517 43.436353 128.693658 77.898253 114.514022 82.923947 175.001836 5.74365 86.15475 5.74365 86.15475-556.416094 42.897886-806.623847 33.743944-763.725962-39.846572-763.725962-39.846572L135.522076 778.638451 50.803238 744.35604s-43.615842-35.897813 10.230877-87.052195S442.627862 566.661868 449.268958 556.969459s210.72016-110.565263 210.720159-110.565263l35.897813-3.410292s53.846719-24.051534 53.846718-26.384892 49.897959-49.897959 49.89796-49.897959l94.411247-19.743797 35.897812-46.308178 69.641757-2.692336 46.846645-59.051902a50.256938 50.256938 0 0 0 51.154383-1.615402c26.025914-16.692483 118.462781-186.309647 155.796506-197.437968s44.333798-35.897813 80.949567-17.948907a119.360227 119.360227 0 0 1 52.769785 56.539055s-19.025841 97.64205-12.923213 116.129424S1546.306108 269.786959 1546.306108 269.786959z" fill="#6060E2" p-id="7205"></path><path d="M1705.692396 685.483628S1550.434357 574.918365 1442.381941 507.250989c-99.975408-62.641683-299.028778-146.642564-299.028778-146.642565l28.000294-42.538907s203.361108 78.795699 341.029219 172.668478 254.874469 175.719792 254.874469 175.719792v5.384672z" fill="#FFFFFF" p-id="7206"></path><path d="M1785.744518 624.457347a616.54493 616.54493 0 0 1-53.846719-127.257746c-17.948906-67.487888-17.948906-202.822641-40.20555-189.001983a145.56563 145.56563 0 0 1-104.103656 47.026135c-70.000734 3.410292-223.822861-107.693438-284.131186-101.231832-56.539055 6.102628-48.103069 57.974967-76.462341 78.61621S687.450944 536.148728 687.450944 536.148728l-638.442596 143.59125 177.873661-89.744531 160.283733-24.410513L646.706926 451.070912l484.62047-219.335635L1237.225943 162.093521l155.975995 48.821025 119.001249 55.103142 113.078109 13.641169 88.667597-158.84782 24.410513 47.385112 11.666789 80.770078 31.769564 89.744532 3.948759 45.769711-24.410512 38.23117 41.102995 134.257819zM1788.077876 640.431873a260.797608 260.797608 0 0 1 38.949126 85.616283 376.927032 376.927032 0 0 1 2.153869 86.334239l65.692997-9.333431a463.620249 463.620249 0 0 0-17.948906-119.001249 466.671563 466.671563 0 0 0-66.410953-99.795918z" fill="#FFFFFF" p-id="7207"></path><path d="M637.014517 444.070839l54.923653 133.719351S514.782465 610.816178 472.782025 610.816178s-76.462341-44.333798-76.462341-44.333799z" fill="#42EAD1" p-id="7208"></path><path d="M1738.718384 235.684037s-29.256717 75.026428-68.205844 95.129203-69.821245 37.154236-69.821246 37.154236l104.283146 89.744531a634.673326 634.673326 0 0 0 80.770078-70.359712c16.512994-22.436133-34.4619-148.437455-34.4619-148.437455z" fill="#F25757" p-id="7209"></path><path d="M1717.179696 287.735865a303.157027 303.157027 0 0 1 27.641316 69.282778 78.077742 78.077742 0 0 1-14.538614 68.205844c-9.153942 12.205256 38.949127-30.513141 38.949126-30.513141a113.078109 113.078109 0 0 0 3.769271-66.410953 592.313907 592.313907 0 0 0-33.205477-77.180297z" fill="#FFA4A4" p-id="7210"></path><path d="M662.681453 525.917851a843.598594 843.598594 0 0 1-135.155264 41.282485 933.343126 933.343126 0 0 1-107.693438 13.641168l32.846499 35.897813 234.412716-29.795185z" fill="#33BCA5" p-id="7211"></path><path d="M1682.538307 815.433709a1479.528343 1479.528343 0 0 0-319.670021-105.539569 2072.201228 2072.201228 0 0 1-247.335928-60.667303l-60.846792 2.333358L959.735852 718.509615s-85.975261 73.411027-110.026796 73.411027-174.104391 40.026061-174.10439 40.026061 446.748277 17.948906 540.621056 11.4873 466.312585-28.000294 466.312585-28.000294z" fill="#6060E2" p-id="7212"></path><path d="M1735.308091 816.510644s-705.750994 44.333798-980.010282 19.923286S93.880614 772.356334 93.880614 772.356334s40.564528 86.15475 211.797093 115.949935 707.186907 89.744531 707.186907 89.744531l251.284688-3.76927s363.644841-25.307958 420.901852-63.000661a105.539569 105.539569 0 0 0 50.256937-94.770225z" fill="#4848C1" p-id="7213"></path><path d="M1891.104598 808.254147s21.359198 29.795184-42.718397 100.872853a195.2841 195.2841 0 0 1-143.59125 67.308398L1298.431713 996.717662 1256.969739 977.691822l89.744532-33.564455 246.617972-26.025914 87.052195-22.9746L1744.462034 808.254147z" fill="#333333" p-id="7214"></path><path d="M1688.640935 806.638745l17.948906 17.948906s-158.129864 11.4873-430.77375 17.948907-579.749672-9.153942-579.749672-9.153943l196.002056-57.257011s115.231978 10.410366 298.6698 7.000074a2877.927631 2877.927631 0 0 0 323.080313-24.590002c3.051314-0.538467 174.822347 48.103069 174.822347 48.103069z" fill="#4848C1" p-id="7215"></path><path d="M991.325927 980.02518s-147.181031-47.385113-209.284247-49.000514-199.23286-4.487227-246.617972-11.4873-307.823742-52.590295-388.055354-104.103657-53.846719-97.462561-53.846719-97.462561l-41.282484-73.411026A78.43672 78.43672 0 0 0 18.495207 707.740272c-1.076934 43.436353 0 107.693438 43.615842 135.155264s225.97673 112.539642 328.464985 127.975701 334.388124 35.897813 334.388124 35.897813z" fill="#333333" p-id="7216"></path><path d="M756.733722 1023.641022a1835.634644 1835.634644 0 0 1-195.2841-10.948833c-197.437969-21.00022-305.131407-55.103142-375.850097-82.38548C57.085356 881.126706-6.633262 810.228526 0.546301 725.509689c2.871825-30.69263 7.538541-82.026502 76.64183-111.462708C134.086164 590.174936 367.601434 549.789896 395.422239 544.943692l237.105052-115.231978a17.948906 17.948906 0 0 1 14.538614 0l4.666715 1.974379a138.206578 138.206578 0 0 1 38.051682-21.359198c5.205183-1.615402 10.948833-2.871825 16.871971-4.128249a52.769784 52.769784 0 0 0 31.051608-19.384818 123.308986 123.308986 0 0 1 48.103069-38.769638 198.514903 198.514903 0 0 1 47.92358-13.46168 57.4365 57.4365 0 0 0 24.051534-7.359051 43.795331 43.795331 0 0 0 10.589855-12.025767 73.231538 73.231538 0 0 1 41.641462-31.949054 85.975261 85.975261 0 0 1 46.667157-0.897445c8.435986 1.615402 11.128322 1.97438 12.923212 0a68.385333 68.385333 0 0 0 13.820658-17.948906 165.309427 165.309427 0 0 1 27.282338-33.743944 36.974747 36.974747 0 0 1 38.051681-9.692409c6.641095 1.615402 13.102702 3.051314 31.590075-8.077008s37.154236-45.769711 57.077522-80.231611c26.74387-46.487667 53.846719-94.590736 89.744531-113.796066 41.641463-23.154089 99.257452-31.590075 135.693731 13.641169s8.794964 157.232419 5.564161 169.976142a17.948906 17.948906 0 1 1-34.641389-8.794964c10.948833-44.333798 17.948906-116.667891 1.076935-138.745045-28.359272-35.000367-76.282852-12.384745-89.744532-4.666716-25.846425 14.359125-52.051828 59.949347-75.205917 100.334386s-44.872266 78.077742-69.641756 92.975335a69.103289 69.103289 0 0 1-58.513435 12.205256h-3.230803l-2.333358 2.153869a130.488549 130.488549 0 0 0-21.359198 26.923359 89.744531 89.744531 0 0 1-23.872045 27.820805 48.821025 48.821025 0 0 1-39.846572 4.487226 52.590295 52.590295 0 0 0-28.897739 0 37.154236 37.154236 0 0 0-22.9746 17.948907A79.154677 79.154677 0 0 1 880.042708 356.121198a88.667597 88.667597 0 0 1-38.410659 13.282191 160.104244 160.104244 0 0 0-40.205551 11.128321 91.359933 91.359933 0 0 0-33.923432 27.820805 88.488108 88.488108 0 0 1-52.231318 32.48752c-4.666716 0-9.333431 2.153869-13.641168 3.230804a133.719352 133.719352 0 0 0-33.564455 21.179709 17.948906 17.948906 0 0 1-17.948906 3.051314l-7.000074-2.871825-233.51527 112.89862a16.512994 16.512994 0 0 1-4.846205 1.435913c-2.512847 0-258.105272 44.154309-312.849436 67.308398-45.769711 19.564308-51.69285 47.385113-55.462121 81.667524-7.897519 84.718838 83.462414 138.386067 161.540157 168.360741 68.9238 26.564381 172.847967 59.590369 366.696155 80.231611 165.129938 17.948906 309.080166 13.641169 427.901925-11.666789a504.184777 504.184777 0 0 1 114.514022-10.769344h21.718177a866.214216 866.214216 0 0 1 138.745045 6.282117 17.948906 17.948906 0 0 1 6.102628 2.153869 114.514022 114.514022 0 0 0 51.333872 14.000147c88.667597 2.153869 384.465572 5.923139 466.671563-37.513214 68.9238-35.897813 93.513802-106.257525 75.385406-213.771474-7.71803-46.128689-46.487667-109.847306-68.9238-143.59125a254.69498 254.69498 0 0 1-31.590075-68.744311l-25.307957-89.744531a17.948906 17.948906 0 0 1 2.333357-14.897593l15.974527-21.897665a60.487814 60.487814 0 0 0 7.000073-52.769785l-19.743797-59.410879a35.897813 35.897813 0 0 0-8.615475-13.820658 45.051755 45.051755 0 0 1-14.538614-34.820878c0-16.871972 2.153869-73.770005-22.256643-99.436941A42.538908 42.538908 0 0 0 1669.794584 113.810963c-62.641683 0-112.539642 120.437161-125.642344 166.74534a17.948906 17.948906 0 0 1-35.897813-10.769344c5.923139-19.564308 60.487814-192.232786 161.540157-192.232786a77.898253 77.898253 0 0 1 58.872412 24.410512c31.949053 33.743944 33.743944 93.513802 31.769564 125.642344a9.692409 9.692409 0 0 0 2.692336 7.359052 73.590516 73.590516 0 0 1 17.948906 28.000293l19.743797 59.231391a95.847159 95.847159 0 0 1-11.307811 84.18037l-9.871898 14.897593 22.077155 81.847012a210.002203 210.002203 0 0 0 26.923359 58.692924c29.256717 44.333798 66.051975 107.693438 74.487961 157.770886 20.641242 122.950008-11.128322 207.489356-94.231758 251.284687-87.411174 46.128689-367.952578 44.333798-484.620469 41.461974a147.719499 147.719499 0 0 1-64.616063-16.692483 898.342759 898.342759 0 0 0-129.770592-5.564161h-21.718176a476.72295 476.72295 0 0 0-107.693438 9.871899A1167.576353 1167.576353 0 0 1 756.733722 1023.641022z" fill="#333333" p-id="7217"></path><path d="M672.194373 516.763909a17.948906 17.948906 0 0 1-6.641095-34.641389c4.666716-1.794891 463.620249-179.489063 502.569375-197.437969 8.794964-3.948759 14.179636-14.179636 22.256644-30.69263 14.718103-29.974673 35.897813-71.795625 103.206211-77.718764 53.846719-5.205183 108.770372 23.692556 162.79658 51.513361 46.846645 24.231023 95.129203 49.359492 136.232199 47.744091C1669.794584 271.581849 1686.666555 124.04184 1687.74349 122.605927a17.948906 17.948906 0 0 1 35.897812 3.769271c0 7.359052-20.461753 179.489063-127.796212 184.155778-50.436427 2.153869-103.026722-25.307958-154.181105-51.69285s-100.334386-52.051828-143.59125-47.744091c-48.462047 4.846205-61.20577 30.513141-74.487961 57.795478a88.667597 88.667597 0 0 1-39.846572 47.564602c-40.385039 17.948906-486.056382 191.694319-504.902733 199.053371a16.512994 16.512994 0 0 1-6.641096 1.256423zM1436.458802 738.61239a17.948906 17.948906 0 0 1-1.076934-35.897812c109.488328-6.641095 286.105566-25.846425 324.157247-51.154383 21.897666-14.718103 24.231023-75.564895 21.897666-102.847233a17.948906 17.948906 0 0 1 16.333504-19.384819 17.948906 17.948906 0 0 1 19.384819 16.333505c0 10.769344 7.538541 105.539569-37.692703 135.693731-58.154456 38.769638-312.849436 55.103142-341.747175 57.257011zM997.428555 998.692042a17.948906 17.948906 0 0 1-5.205183 0A1708.197409 1708.197409 0 0 0 802.144455 951.845397a545.64675 545.64675 0 0 0-104.103657-9.333431c-26.923359 0-67.667377-1.256423-142.693804-5.384672-251.284688-13.641169-441.902072-117.026869-461.46638-137.129644a62.462194 62.462194 0 0 1-17.948907-49.538981c0-6.641095 0-14.718103-1.615401-24.94898a68.026355 68.026355 0 0 0-24.590002-46.667156 17.948906 17.948906 0 0 1-4.307737-24.94898 17.948906 17.948906 0 0 1 25.128468-4.487227 105.180591 105.180591 0 0 1 39.487594 71.795625c1.076934 11.128322 1.435913 19.923286 1.794891 26.92336 0 17.948906 1.076934 19.384819 7.53854 26.205403 14.359125 12.743723 189.719939 112.89862 437.773824 125.642344 74.487961 3.948759 114.693511 4.666716 141.257893 5.205183a568.082883 568.082883 0 0 1 109.308839 9.871898 1664.581567 1664.581567 0 0 1 194.925122 46.667156 17.948906 17.948906 0 0 1-5.384672 35.897813z" fill="#333333" p-id="7218"></path><path d="M1461.76676 741.663704a17.948906 17.948906 0 0 1-10.948833-3.948759c-1.794891-1.256423-179.489063-140.001469-292.746661-164.053003-89.744531-19.025841-339.952285 15.615548-505.261711 38.410659-117.924314 16.333505-175.360814 24.051534-193.848188 20.461753a86.334239 86.334239 0 0 1-68.9238-59.23139 17.948906 17.948906 0 0 1 34.820878-8.615475 50.974894 50.974894 0 0 0 41.102995 32.48752c13.641169 2.692336 99.257452-9.153942 182.00191-20.641242C826.195989 551.943765 1069.22418 518.199821 1165.430318 539.020553c122.411541 25.846425 300.105713 165.129938 307.464764 171.053076a17.948906 17.948906 0 0 1-11.128322 32.128543zM1138.686447 862.100865c-288.797902 0-937.291885-35.897813-1043.728899-78.077742a17.948906 17.948906 0 0 1-10.051388-23.333578 17.948906 17.948906 0 0 1 23.333579-10.230876c105.180591 41.641463 803.931512 78.616209 1063.113718 75.744384 262.054031-3.051314 710.41771-45.231244 714.904936-45.769711a17.948906 17.948906 0 0 1 3.410292 35.897813c-4.487227 0-454.286818 42.897886-717.95625 45.9492z" fill="#333333" p-id="7219"></path><path d="M1254.636382 993.486859a17.948906 17.948906 0 0 1-6.641096-34.641389c2.512847-1.076934 61.923727-25.128469 111.821686-39.667083 31.231097-9.153942 101.231831-13.102702 169.078697-17.948906 45.231244-2.512847 87.770152-5.025694 112.001175-8.615475 33.923433-5.205183 57.077522-37.154236 68.564822-57.4365C1615.947865 804.125898 1207.969225 667.714211 1077.480677 667.714211h-1.076935c-28.179783 0-59.231391 27.282338-92.077889 55.821098A509.748938 509.748938 0 0 1 915.94052 775.766626c-58.154456 35.897813-171.771033 75.205917-381.593747 62.103216a17.948906 17.948906 0 0 1-16.871972-19.025841 17.948906 17.948906 0 0 1 19.025841-16.871971c200.668772 12.564234 306.926297-24.051534 360.773016-56.898033a485.697404 485.697404 0 0 0 62.103216-48.641536c38.051681-33.025988 73.949494-64.257084 115.590956-64.616063H1077.480677c154.001616 0 643.109311 169.617164 664.109532 176.976216a16.871972 16.871972 0 0 1 10.230876 9.333431 17.948906 17.948906 0 0 1 0 14.000147c-1.435913 3.589781-34.4619 86.15475-105.001101 96.744605-25.846425 3.948759-69.282778 6.461606-115.411468 9.153942a1104.575692 1104.575692 0 0 0-161.540156 15.615548c-48.103069 14.179636-107.693438 38.23117-107.693438 38.41066a17.948906 17.948906 0 0 1-7.53854 1.435912zM692.656127 596.99552a17.948906 17.948906 0 0 1-16.692483-11.666789L628.75802 463.276168a17.948906 17.948906 0 0 1 10.410366-23.333578 17.948906 17.948906 0 0 1 23.154089 10.410366l47.026134 122.232051a17.948906 17.948906 0 0 1-10.410365 23.15409 20.641242 20.641242 0 0 1-6.282117 1.256423zM1603.204141 377.480396a17.948906 17.948906 0 0 1-1.974379-35.897812 203.540597 203.540597 0 0 0 65.334018-33.025988 156.873441 156.873441 0 0 0 57.974968-84.898326 17.948906 17.948906 0 1 1 35.897812 8.077007 191.694319 191.694319 0 0 1-73.052048 106.616504C1633.896771 372.813681 1607.870857 377.480396 1605.178521 377.480396zM1707.307798 471.353176a17.948906 17.948906 0 0 1-14.359125-7.179562 17.948906 17.948906 0 0 1 3.410292-25.128469L1752.539041 395.429303a17.948906 17.948906 0 0 1 25.128469 3.230803 17.948906 17.948906 0 0 1-3.410292 25.307958L1718.077141 467.224928a17.948906 17.948906 0 0 1-10.769343 4.128248z" fill="#333333" p-id="7220"></path><path d="M1726.154149 489.302082a17.948906 17.948906 0 0 1-11.846278-4.487226l-147.36052-128.33468a17.948906 17.948906 0 0 1 23.513067-27.102848l147.36052 128.334679a17.948906 17.948906 0 0 1 1.794891 25.307958 17.948906 17.948906 0 0 1-13.46168 6.282117z" fill="#333333" p-id="7221"></path><path d="M1288.918793 279.12039m-30.872119 0a30.872119 30.872119 0 1 0 61.744237 0 30.872119 30.872119 0 1 0-61.744237 0Z" fill="#333333" p-id="7222"></path><path d="M1763.487874 673.278372a17.948906 17.948906 0 0 1-10.589854-3.410293 3494.293072 3494.293072 0 0 0-302.798049-197.437969c-138.206578-76.64183-292.746661-145.924608-294.182574-146.642564a17.948906 17.948906 0 1 1 14.718103-32.846498c1.435913 0 157.232419 70.718691 296.87491 148.257966a3603.422422 3603.422422 0 0 1 306.567319 199.591837 17.948906 17.948906 0 0 1 3.948759 25.128469 17.948906 17.948906 0 0 1-14.538614 7.359052zM1218.020613 890.460137a298.6698 298.6698 0 0 0-158.488842-5.205182c-61.923727 17.948906-56.539055 47.744091-43.256865 52.769784 19.923286 7.538541 204.97651 3.948759 221.489504-7.359052a17.948906 17.948906 0 0 0 8.256497-16.692482c-0.717956-7.179563-10.410366-17.410439-28.000294-23.513068z" fill="#333333" p-id="7223"></path><path d="M1160.943091 313.223312l83.282925-105.539569 103.206211-22.9746 24.051534-95.66767-37.692703-60.846793-105.539569-0.538467-109.847306 181.642932-56.180076 29.795184-46.487668 5.74365-33.743943 59.051902-58.333946-5.205183-46.487667 37.692703-25.128469 18.487373-65.872486 10.769344-58.333945 49.180003-64.077596 25.846425-22.256643 11.4873 21.359198 43.615843 498.082149-182.540377zM1523.690487 265.838199s77.898253-170.33512 139.821979-164.950448 39.667083 35.897813 39.667083 35.897812-26.74387 109.847306-38.949126 121.334607-38.23117 35.897813-61.026282 37.513214-79.513655-29.795184-79.513654-29.795185zM530.577503 769.663998c-210.181692 0-437.953313-19.923286-440.46616-20.102775a17.948906 17.948906 0 1 1 3.051314-35.897812c2.692336 0 274.079799 24.051534 496.107769 19.384818 165.129938-3.051314 362.567907-27.282338 364.721776-27.641315a17.948906 17.948906 0 0 1 4.487226 35.897812c-1.97438 0-202.284174 24.590002-368.491045 28.000294-19.564308 0.179489-39.487594 0.358978-59.41088 0.358978z" fill="#333333" p-id="7224"></path><path d="M1166.148274 377.480396m-16.871972 0a16.871972 16.871972 0 1 0 33.743944 0 16.871972 16.871972 0 1 0-33.743944 0Z" fill="#333333" p-id="7225"></path><path d="M1240.636235 413.557698m-16.871972 0a16.871972 16.871972 0 1 0 33.743944 0 16.871972 16.871972 0 1 0-33.743944 0Z" fill="#333333" p-id="7226"></path><path d="M1322.483247 460.404343m-16.871972 0a16.871972 16.871972 0 1 0 33.743944 0 16.871972 16.871972 0 1 0-33.743944 0Z" fill="#333333" p-id="7227"></path><path d="M1394.81734 502.943251m-16.871972 0a16.871972 16.871972 0 1 0 33.743943 0 16.871972 16.871972 0 1 0-33.743943 0Z" fill="#333333" p-id="7228"></path><path d="M1474.330994 556.78997m-16.871972 0a16.871972 16.871972 0 1 0 33.743944 0 16.871972 16.871972 0 1 0-33.743944 0Z" fill="#333333" p-id="7229"></path><path d="M1065.813888 422.891129m-16.871972 0a16.871972 16.871972 0 1 0 33.743944 0 16.871972 16.871972 0 1 0-33.743944 0Z" fill="#333333" p-id="7230"></path><path d="M1152.148127 456.994051m-16.871972 0a16.871972 16.871972 0 1 0 33.743944 0 16.871972 16.871972 0 1 0-33.743944 0Z" fill="#333333" p-id="7231"></path><path d="M1235.251563 501.686828m-16.871972 0a16.871972 16.871972 0 1 0 33.743944 0 16.871972 16.871972 0 1 0-33.743944 0Z" fill="#333333" p-id="7232"></path><path d="M1313.149816 538.661575m-16.871972 0a16.871972 16.871972 0 1 0 33.743944 0 16.871972 16.871972 0 1 0-33.743944 0Z" fill="#333333" p-id="7233"></path><path d="M1394.278872 590.354425m-16.871971 0a16.871972 16.871972 0 1 0 33.743943 0 16.871972 16.871972 0 1 0-33.743943 0Z" fill="#333333" p-id="7234"></path><path d="M1557.972898 618.534207m-16.871972 0a16.871972 16.871972 0 1 0 33.743943 0 16.871972 16.871972 0 1 0-33.743943 0Z" fill="#333333" p-id="7235"></path><path d="M1149.276302 220.068488c-7.538541 59.051902-79.872633 46.308178-105.898547 57.974968-31.949053 14.359125-23.154089 39.308105-60.667303 45.769711-27.102848 4.666716-46.667156-14.359125-74.846939 19.923286-35.897813 44.513288-83.103436 5.564161-104.642124 43.077375-27.820805 48.282558-57.974967 27.102848-73.052048 46.846645-10.410366 13.282191-58.154456 24.051534-47.385113 24.590002a63.359639 63.359639 0 0 0 49.180003-15.077082c13.46168-11.846278 45.051755-12.564234 53.846719-17.948906 32.128542-20.102775 31.231097-32.846498 49.897959-42.000441s38.769638 3.76927 65.15453-10.051387c17.948906-9.51292 21.718177-27.820805 45.051755-38.41066 17.948906-8.077008 39.308105 7.897519 57.077522 0 32.308031-15.077081 33.564455-47.744091 73.770005-52.231317 19.923286-2.153869 66.231464-4.487227 74.487961-34.641389 6.461606-27.820805-0.897445-44.333798-1.97438-27.820805z" fill="#FFFFFF" p-id="7236"></path></svg>